{
  "accessors": [
    {
      "bufferView": 2,
      "componentType": 5126,
      "count": 65532,
      "max": [
        55.71065902709961,
        55.92919158935547,
        219.75918579101563
      ],
      "min": [
        -55.50365447998047,
        -54.47124099731445,
        -2.143066883087158
      ],
      "type": "VEC3"
    },
    {
      "bufferView": 2,
      "byteOffset": 786384,
      "componentType": 5126,
      "count": 65532,
      "max": [
        0.9999687671661377,
        0.9998767375946045,
        1.0
      ],
      "min": [
        -0.9999687671661377,
        -0.9998767375946045,
        -1.0
      ],
      "type": "VEC3"
    },
    {
      "bufferView": 1,
      "componentType": 5126,
      "count": 65532,
      "max": [
        4.082030773162842,
        1.0
      ],
      "min": [
        -0.02979999966919422,
        0.0
      ],
      "type": "VEC2"
    },
    {
      "bufferView": 0,
      "componentType": 5125,
      "count": 160935,
      "type": "SCALAR"
    },
    {
      "bufferView": 2,
      "byteOffset": 1572768,
      "componentType": 5126,
      "count": 65532,
      "max": [
        51.498619079589844,
        50.745723724365234,
        143.04763793945313
      ],
      "min": [
        -51.28779983520508,
        -49.65685272216797,
        3.350130081176758
      ],
      "type": "VEC3"
    },
    {
      "bufferView": 2,
      "byteOffset": 2359152,
      "componentType": 5126,
      "count": 65532,
      "max": [
        0.9996926188468933,
        0.9999687671661377,
        0.999599039554596
      ],
      "min": [
        -0.999845564365387,
        -0.9999687671661377,
        -0.9996902346611023
      ],
      "type": "VEC3"
    },
    {
      "bufferView": 1,
      "byteOffset": 524256,
      "componentType": 5126,
      "count": 65532,
      "max": [
        3.943358898162842,
        1.0
      ],
      "min": [
        -0.023238999769091606,
        0.0
      ],
      "type": "VEC2"
    },
    {
      "bufferView": 0,
      "byteOffset": 643740,
      "componentType": 5125,
      "count": 146097,
      "type": "SCALAR"
    },
    {
      "bufferView": 2,
      "byteOffset": 3145536,
      "componentType": 5126,
      "count": 65532,
      "max": [
        33.38889694213867,
        31.818023681640625,
        202.20159912109375
      ],
      "min": [
        -33.142154693603516,
        -30.84193992614746,
        16.613601684570313
      ],
      "type": "VEC3"
    },
    {
      "bufferView": 2,
      "byteOffset": 3931920,
      "componentType": 5126,
      "count": 65532,
      "max": [
        0.9999687671661377,
        0.9999376535415649,
        0.9999687671661377
      ],
      "min": [
        -0.9998767375946045,
        -0.9999687671661377,
        -0.9999687671661377
      ],
      "type": "VEC3"
    },
    {
      "bufferView": 1,
      "byteOffset": 1048512,
      "componentType": 5126,
      "count": 65532,
      "max": [
        2.71875,
        1.0
      ],
      "min": [
        -0.029510000720620155,
        0.0
      ],
      "type": "VEC2"
    },
    {
      "bufferView": 0,
      "byteOffset": 1228128,
      "componentType": 5125,
      "count": 171930,
      "type": "SCALAR"
    },
    {
      "bufferView": 2,
      "byteOffset": 4718304,
      "componentType": 5126,
      "count": 65532,
      "max": [
        55.23418426513672,
        55.45208740234375,
        234.8611297607422
      ],
      "min": [
        -55.03059387207031,
        -53.846435546875,
        -2.175313949584961
      ],
      "type": "VEC3"
    },
    {
      "bufferView": 2,
      "byteOffset": 5504688,
      "componentType": 5126,
      "count": 65532,
      "max": [
        0.9999687671661377,
        1.0,
        0.9999687671661377
      ],
      "min": [
        -0.9999696016311646,
        -1.0,
        -0.9999687671661377
      ],
      "type": "VEC3"
    },
    {
      "bufferView": 1,
      "byteOffset": 1572768,
      "componentType": 5126,
      "count": 65532,
      "max": [
        2.816406011581421,
        1.0
      ],
      "min": [
        -0.024582000449299812,
        0.0
      ],
      "type": "VEC2"
    },
    {
      "bufferView": 0,
      "byteOffset": 1915848,
      "componentType": 5125,
      "count": 169356,
      "type": "SCALAR"
    },
    {
      "bufferView": 2,
      "byteOffset": 6291072,
      "componentType": 5126,
      "count": 65532,
      "max": [
        26.51761245727539,
        26.199201583862305,
        117.03225708007813
      ],
      "min": [
        -26.25936508178711,
        -25.078617095947266,
        48.112464904785156
      ],
      "type": "VEC3"
    },
    {
      "bufferView": 2,
      "byteOffset": 7077456,
      "componentType": 5126,
      "count": 65532,
      "max": [
        1.0,
        0.9997214674949646,
        0.9999687671661377
      ],
      "min": [
        -0.9999687671661377,
        -0.9999392032623291,
        -1.0
      ],
      "type": "VEC3"
    },
    {
      "bufferView": 1,
      "byteOffset": 2097024,
      "componentType": 5126,
      "count": 65532,
      "max": [
        2.785156011581421,
        1.0
      ],
      "min": [
        -0.02902200073003769,
        0.0
      ],
      "type": "VEC2"
    },
    {
      "bufferView": 0,
      "byteOffset": 2593272,
      "componentType": 5125,
      "count": 160089,
      "type": "SCALAR"
    },
    {
      "bufferView": 2,
      "byteOffset": 7863840,
      "componentType": 5126,
      "count": 65534,
      "max": [
        38.375858306884766,
        38.109153747558594,
        89.40489196777344
      ],
      "min": [
        -38.08534622192383,
        -37.71318435668945,
        24.30385398864746
      ],
      "type": "VEC3"
    },
    {
      "bufferView": 2,
      "byteOffset": 8650248,
      "componentType": 5126,
      "count": 65534,
      "max": [
        0.9999696016311646,
        0.9999696016311646,
        0.9997214674949646
      ],
      "min": [
        -0.9999696016311646,
        -0.9999696016311646,
        -0.9998767375946045
      ],
      "type": "VEC3"
    },
    {
      "bufferView": 1,
      "byteOffset": 2621280,
      "componentType": 5126,
      "count": 65534,
      "max": [
        4.421875,
        1.0
      ],
      "min": [
        -0.022690000012516975,
        0.0
      ],
      "type": "VEC2"
    },
    {
      "bufferView": 0,
      "byteOffset": 3233628,
      "componentType": 5125,
      "count": 132420,
      "type": "SCALAR"
    },
    {
      "bufferView": 2,
      "byteOffset": 9436656,
      "componentType": 5126,
      "count": 43848,
      "max": [
        45.87174987792969,
        45.17753601074219,
        47.56793975830078
      ],
      "min": [
        -45.648040771484375,
        -43.87514877319336,
        13.65721321105957
      ],
      "type": "VEC3"
    },
    {
      "bufferView": 2,
      "byteOffset": 9962832,
      "componentType": 5126,
      "count": 43848,
      "max": [
        0.9999696016311646,
        0.9998767375946045,
        0.9992275238037109
      ],
      "min": [
        -0.9999687671661377,
        -0.9996052384376526,
        -0.9999383687973022
      ],
      "type": "VEC3"
    },
    {
      "bufferView": 1,
      "byteOffset": 3145552,
      "componentType": 5126,
      "count": 43848,
      "max": [
        3.158202886581421,
        1.0
      ],
      "min": [
        -0.027191000059247017,
        0.0
      ],
      "type": "VEC2"
    },
    {
      "bufferView": 0,
      "byteOffset": 3763308,
      "componentType": 5125,
      "count": 93609,
      "type": "SCALAR"
    }
  ],
  "asset": {
    "extras": {
      "author": "koters (https://sketchfab.com/koterstudios)",
      "license": "CC-BY-4.0 (http://creativecommons.org/licenses/by/4.0/)",
      "source": "https://sketchfab.com/3d-models/eiffel-tower-0efc103a12ad4c34b09a37e5050f8b23",
      "title": "Eiffel Tower"
    },
    "generator": "Sketchfab-13.74.0",
    "version": "2.0"
  },
  "bufferViews": [
    {
      "buffer": 0,
      "byteLength": 4137744,
      "name": "floatBufferViews",
      "target": 34963
    },
    {
      "buffer": 0,
      "byteLength": 3496336,
      "byteOffset": 4137744,
      "byteStride": 8,
      "name": "floatBufferViews",
      "target": 34962
    },
    {
      "buffer": 0,
      "byteLength": 10489008,
      "byteOffset": 7634080,
      "byteStride": 12,
      "name": "floatBufferViews",
      "target": 34962
    }
  ],
  "buffers": [
    {
      "byteLength": 18123088,
      "uri": "scene.bin"
    }
  ],
  "materials": [
    {
      "doubleSided": true,
      "name": "Default_OBJ",
      "pbrMetallicRoughness": {
        "baseColorFactor": [
          0.2768744655790848,
          0.24332203344062547,
          0.24332203344062547,
          1.0
        ],
        "metallicFactor": 0.0,
        "roughnessFactor": 0.6
      }
    }
  ],
  "meshes": [
    {
      "name": "Object_0",
      "primitives": [
        {
          "attributes": {
            "NORMAL": 1,
            "POSITION": 0,
            "TEXCOORD_0": 2
          },
          "indices": 3,
          "material": 0,
          "mode": 4
        }
      ]
    },
    {
      "name": "Object_1",
      "primitives": [
        {
          "attributes": {
            "NORMAL": 5,
            "POSITION": 4,
            "TEXCOORD_0": 6
          },
          "indices": 7,
          "material": 0,
          "mode": 4
        }
      ]
    },
    {
      "name": "Object_2",
      "primitives": [
        {
          "attributes": {
            "NORMAL": 9,
            "POSITION": 8,
            "TEXCOORD_0": 10
          },
          "indices": 11,
          "material": 0,
          "mode": 4
        }
      ]
    },
    {
      "name": "Object_3",
      "primitives": [
        {
          "attributes": {
            "NORMAL": 13,
            "POSITION": 12,
            "TEXCOORD_0": 14
          },
          "indices": 15,
          "material": 0,
          "mode": 4
        }
      ]
    },
    {
      "name": "Object_4",
      "primitives": [
        {
          "attributes": {
            "NORMAL": 17,
            "POSITION": 16,
            "TEXCOORD_0": 18
          },
          "indices": 19,
          "material": 0,
          "mode": 4
        }
      ]
    },
    {
      "name": "Object_5",
      "primitives": [
        {
          "attributes": {
            "NORMAL": 21,
            "POSITION": 20,
            "TEXCOORD_0": 22
          },
          "indices": 23,
          "material": 0,
          "mode": 4
        }
      ]
    },
    {
      "name": "Object_6",
      "primitives": [
        {
          "attributes": {
            "NORMAL": 25,
            "POSITION": 24,
            "TEXCOORD_0": 26
          },
          "indices": 27,
          "material": 0,
          "mode": 4
        }
      ]
    }
  ],
  "nodes": [
    {
      "children": [
        1
      ],
      "matrix": [
        0.13712497055530548,
        0.0,
        0.0,
        0.0,
        0.0,
        3.0447859912309357e-17,
        -0.13712497055530548,
        0.0,
        0.0,
        0.13712497055530548,
        3.0447859912309357e-17,
        0.0,
        0.0,
        0.0,
        0.0,
        1.0
      ],
      "name": "Sketchfab_model"
    },
    {
      "children": [
        2,
        3,
        4,
        5,
        6,
        7,
        8
      ],
      "name": "Eiffel Tower.obj.cleaner.materialmerger.gles"
    },
    {
      "mesh": 0,
      "name": "Object_2"
    },
    {
      "mesh": 1,
      "name": "Object_3"
    },
    {
      "mesh": 2,
      "name": "Object_4"
    },
    {
      "mesh": 3,
      "name": "Object_5"
    },
    {
      "mesh": 4,
      "name": "Object_6"
    },
    {
      "mesh": 5,
      "name": "Object_7"
    },
    {
      "mesh": 6,
      "name": "Object_8"
    }
  ],
  "scene": 0,
  "scenes": [
    {
      "name": "Sketchfab_Scene",
      "nodes": [
        0
      ]
    }
  ]
}
