{
  "accessors": [
    {
      "bufferView": 2,
      "componentType": 5126,
      "count": 34880,
      "max": [
        87.37959289550781,
        450.413818359375,
        87.37957000732422
      ],
      "min": [
        -87.37959289550781,
        0.0,
        -87.37957000732422
      ],
      "type": "VEC3"
    },
    {
      "bufferView": 2,
      "byteOffset": 418560,
      "componentType": 5126,
      "count": 34880,
      "max": [
        1.0,
        1.0,
        1.0
      ],
      "min": [
        -1.0,
        -1.0,
        -1.0
      ],
      "type": "VEC3"
    },
    {
      "bufferView": 1,
      "componentType": 5126,
      "count": 34880,
      "max": [
        1.2652549743652344,
        0.9583804607391357
      ],
      "min": [
        0.017452305182814598,
        0.04162096977233887
      ],
      "type": "VEC2"
    },
    {
      "bufferView": 1,
      "byteOffset": 279040,
      "componentType": 5126,
      "count": 34880,
      "max": [
        1.0,
        1.0
      ],
      "min": [
        0.0,
        0.0
      ],
      "type": "VEC2"
    },
    {
      "bufferView": 0,
      "componentType": 5125,
      "count": 68985,
      "type": "SCALAR"
    }
  ],
  "asset": {
    "extras": {
      "author": "Acme (https://sketchfab.com/acmelab)",
      "license": "SKETCHFAB Editorial (https://sketchfab.com/licenses)",
      "source": "https://sketchfab.com/3d-models/eiffel-tower-in-paris-france-7aa4aca8892a422fa1e5cc9c465a42bc",
      "title": "Eiffel Tower in Paris France"
    },
    "generator": "Sketchfab-12.67.0",
    "version": "2.0"
  },
  "bufferViews": [
    {
      "buffer": 0,
      "byteLength": 275940,
      "name": "floatBufferViews",
      "target": 34963
    },
    {
      "buffer": 0,
      "byteLength": 558080,
      "byteOffset": 275940,
      "byteStride": 8,
      "name": "floatBufferViews",
      "target": 34962
    },
    {
      "buffer": 0,
      "byteLength": 837120,
      "byteOffset": 834020,
      "byteStride": 12,
      "name": "floatBufferViews",
      "target": 34962
    }
  ],
  "buffers": [
    {
      "byteLength": 1671140,
      "uri": "scene.bin"
    }
  ],
  "extensionsUsed": [
    "KHR_materials_clearcoat"
  ],
  "materials": [
    {
      "doubleSided": true,
      "extensions": {
        "KHR_materials_clearcoat": {
          "clearcoatFactor": 0.2,
          "clearcoatRoughnessFactor": 0.04
        }
      },
      "name": "Eiffel",
      "pbrMetallicRoughness": {
        "baseColorFactor": [
          0.2735315399269288,
          0.24398985125590889,
          0.1556942643532606,
          1.0
        ],
        "metallicFactor": 0.2,
        "roughnessFactor": 0.5
      }
    }
  ],
  "meshes": [
    {
      "name": "Tour_Eiffel_Eiffel_0",
      "primitives": [
        {
          "attributes": {
            "NORMAL": 1,
            "POSITION": 0,
            "TEXCOORD_0": 2,
            "TEXCOORD_1": 3
          },
          "indices": 4,
          "material": 0,
          "mode": 4
        }
      ]
    }
  ],
  "nodes": [
    {
      "children": [
        1
      ],
      "matrix": [
        1.0,
        0.0,
        0.0,
        0.0,
        0.0,
        2.220446049250313e-16,
        -1.0,
        0.0,
        0.0,
        1.0,
        2.220446049250313e-16,
        0.0,
        0.0,
        0.0,
        0.0,
        1.0
      ],
      "name": "Sketchfab_model"
    },
    {
      "children": [
        2
      ],
      "matrix": [
        1.0,
        0.0,
        0.0,
        0.0,
        0.0,
        0.0,
        1.0,
        0.0,
        0.0,
        -1.0,
        0.0,
        0.0,
        0.0,
        0.0,
        0.0,
        1.0
      ],
      "name": "72fd165f5bb24b55aca3a197c70cc8b0.fbx"
    },
    {
      "children": [
        3
      ],
      "name": "RootNode"
    },
    {
      "children": [
        4
      ],
      "name": "Tour_Eiffel"
    },
    {
      "mesh": 0,
      "name": "Tour_Eiffel_Eiffel_0"
    }
  ],
  "scene": 0,
  "scenes": [
    {
      "name": "Sketchfab_Scene",
      "nodes": [
        0
      ]
    }
  ]
}
