{
    "accessors" : [{"bufferView" : 0, "byteOffset" : 0, "componentType" : 5123, "count" : 18960, "type" : "SCALAR", "max" : [18959], "min" : [0]}, {"bufferView" : 1, "byteOffset" : 0, "componentType" : 5126, "count" : 18960, "type" : "VEC3", "max" : [427.0484619140625, 240.29815673828125, 323.7995300292969], "min" : [133.31893920898438, 96.49212646484375, 141.18869018554688], "name" : "POSITION"}, {"bufferView" : 1, "byteOffset" : 12, "componentType" : 5126, "count" : 18960, "type" : "VEC3", "max" : [0.9969815611839294, 0.999045193195343, 0.9969815015792847], "min" : [-0.9969815611839294, -0.9999887347221375, -0.9969815015792847], "name" : "NORMAL"}], "asset" : {"generator" : "Aspose.3D 22.10", "version" : "2.0"}, "buffers" : [{"uri" : "data:application/octet-stream;base64,", "byteLength" : 492968}], "bufferViews" : [{"buffer" : 0, "byteOffset" : 0, "byteLength" : 37920, "target" : 34963}, {"buffer" : 0, "byteOffset" : 37924, "byteLength" : 455040, "byteStride" : 24, "target" : 34962}], "meshes" : [{"primitives" : [{"attributes" : {"POSITION" : 1, "NORMAL" : 2}, "indices" : 0, "mode" : 4}], "name" : ""}], "nodes" : [{"mesh" : 0, "name" : "teapot:Mesh"}], "scene" : 0, "scenes" : [{"nodes" : [0]}]}